<svg width="410" height="408" viewBox="0 0 1 1" xmlns="http://www.w3.org/2000/svg">
<path id="fill" style="stroke: none; fill: #EDEDED;" d="m 0.37285744,0.69162907 c 0.0590451,-0.0652242 0.0542391,-0.12632913 0.0542391,-0.12632913 h -0.0590451 c 0,0 -0.0109853,-0.008925 -0.0157913,-0.0247164 -0.004558,-0.0149781 -0.004119,-0.0302093 -0.004119,-0.0302093 l 0.0714034,-0.0460003 c 0,0 -0.0458563,-0.0329428 -0.0473734,-0.0981797 -0.001309,-0.0563004 0.045657,-0.12770231 0.12701573,-0.12770231 0.0813587,0 0.12701566,0.0652244 0.12838888,0.12701574 0.001298,0.0583603 -0.0494332,0.0988663 -0.0494332,0.0988663 l 0.0707168,0.0473734 c 0,0 0.001291,0.0115538 -0.004202,0.0294049 -0.005493,0.0178507 -0.0150212,0.0236623 -0.0150212,0.0236623 l -0.0575053,4.8408e-4 c 0,0 -5.6664e-4,0.0662727 0.0561061,0.12769041 0.0506567,0.0548988 0.12312352,0.0594592 0.12118159,0.19985295 -0.3440651,0 -0.34207642,-7.088e-5 -0.50238542,-7.088e-5 0,-0.13155752 0.0262825,-0.0968399 0.12582432,-0.20114206 z"/>
<path id="shadow" style="stroke: none; fill: #00000029" d="m 0.49183258,0.238367 c 0,0 0.10329831,0.005154 0.10329831,0.11317803 0,0.073628 -0.10755041,0.11030167 -0.10755041,0.11030167 l 0.0709083,0.001123 c 4.7704e-4,3.7588e-4 0.0247796,0.0196368 0.0247614,0.0467718 -1.895e-5,0.0288654 -0.022135,0.0441455 -0.022135,0.0441455 H 0.41542179 c 0,0 0.142969,0.15132582 0.18258554,0.17820846 0.0396164,0.0268825 0.11742998,0.035392 0.11742998,0.035392 0,0 -0.0608913,-0.0466348 -0.1019227,-0.0876661 -0.0401059,-0.040104 -0.0436281,-0.12100205 -0.0437705,-0.12468147 l 0.0607784,0.008629 c 0,0 0.015554,-0.009863 0.0183837,-0.0240111 0.002831,-0.0141485 0,-0.0311397 0,-0.0311397 l -0.0669063,-0.0442706 -0.0183837,-0.001252 0.0158826,2.5037e-4 c 0,0 0.0523996,-0.0354701 0.0523996,-0.10479916 0,-0.069329 -0.0722097,-0.12018129 -0.1400656,-0.12018129 z"/>
<path id="highlight" style="stroke: none; fill: #ffffff60" d="m 0.46984075,0.24336458 c -0.0265071,0.002988 -0.0579302,0.0158571 -0.0778134,0.0552752 -0.0387538,0.0768292 -0.0161166,0.0926711 -0.003022,0.11785335 0,0 -0.0125249,-0.0504275 0.0352553,-0.109795 0.0445907,-0.0554044 0.0936783,-0.0594303 0.0936783,-0.0594303 0,0 -0.0215911,-0.006892 -0.0480983,-0.003903 z m -0.0425581,0.22550784 -0.0765543,0.051372 0.0654741,0.003022 0.0231678,-0.0533866 z m -0.002015,0.16318155 c -0.0201462,0.0362625 -0.0370957,0.0677414 -0.0896491,0.10375123 -0.0816081,0.0559182 -0.0833281,0.097722 -0.0846127,0.12893357 -0.001294,0.0314583 -0.002014,0.041299 -0.002015,0.041299 0,0 0.0151093,-0.0554012 0.0433136,-0.0795762 0.0282043,-0.024175 0.087443,-0.0623041 0.10072936,-0.0795762 0.0201459,-0.0261896 0.0352553,-0.10274394 0.0322334,-0.11483146 z"/>
<g>
    <path
        style="fill: none; stroke: black; stroke-width: 0.034; stroke-linecap: round; stroke-linejoin: miter; stroke-miterlimit: 2"
        d="m 0.37285744,0.69162907 c 0.0590451,-0.0652242 0.0542391,-0.12632913 0.0542391,-0.12632913 h -0.0590451 c 0,0 -0.0109853,-0.008925 -0.0157913,-0.0247164 -0.004558,-0.0149781 -0.004119,-0.0302093 -0.004119,-0.0302093 l 0.0714034,-0.0460003 c 0,0 -0.0458563,-0.0329428 -0.0473734,-0.0981797 -0.001309,-0.0563004 0.045657,-0.12770231 0.12701573,-0.12770231 0.0813587,0 0.12701566,0.0652244 0.12838888,0.12701574 0.001298,0.0583603 -0.0494332,0.0988663 -0.0494332,0.0988663 l 0.0707168,0.0473734 c 0,0 0.001291,0.0115538 -0.004202,0.0294049 -0.005493,0.0178507 -0.0150212,0.0236623 -0.0150212,0.0236623 l -0.0575053,4.8408e-4 c 0,0 -5.6664e-4,0.0662727 0.0561061,0.12769041 0.0506567,0.0548988 0.12312352,0.0594592 0.12118159,0.19985295 -0.3440651,0 -0.34207642,-7.088e-5 -0.50238542,-7.088e-5 0,-0.13155752 0.0262825,-0.0968399 0.12582432,-0.20114206 z"
        id="outline"
    />
</g>
</svg>
